<svg xmlns="http://www.w3.org/2000/svg" viewBox="0 0 480 480" role="img" aria-label="Botanical illustration of monstera"><defs><linearGradient id="leaf" x1="0" x2="1" y1="0" y2=".6"><stop stop-color="#173f2d"/><stop offset=".55" stop-color="#47794b"/><stop offset="1" stop-color="#7c9c5c"/></linearGradient><linearGradient id="pot"><stop stop-color="#ffffff" stop-opacity=".32"/><stop offset="1" stop-color="#47291e" stop-opacity=".25"/></linearGradient><radialGradient id="glow"><stop stop-color="#fffef7"/><stop offset="1" stop-color="#fffef7" stop-opacity="0"/></radialGradient></defs><rect width="480" height="480" fill="#e5eadd"/><circle cx="320" cy="160" r="190" fill="url(#glow)"/><path d="M0 399H480V480H0Z" fill="#fff" opacity=".16"/><ellipse cx="240" cy="410" rx="95" ry="16" fill="#203c28" opacity=".09"/><path d="M168 312H312L292 397Q240 421 188 397Z" fill="#ded2ba"/><path d="M168 312H312L292 397Q240 421 188 397Z" fill="url(#pot)"/><ellipse cx="240" cy="312" rx="72" ry="15" fill="#ded2ba"/><ellipse cx="240" cy="310" rx="64" ry="9" fill="#584535"/><path d="M173 325Q240 342 307 325" fill="none" stroke="#fff" opacity=".18" stroke-width="3"/><path d="M240 320Q230 192.5 240 65" stroke="#426c40" stroke-width="6" fill="none"/><path d="M240 182Q230 172 215 162" stroke="#426c40" stroke-width="6" fill="none"/><g transform="translate(215 162) rotate(-56) scale(0.83)"><path d="M0 0C-45-25-54-81 0-100C54-81 45-25 0 0Z" fill="url(#leaf)"/><path d="M0-5V-100" stroke="#a1b88b" stroke-width="1.5" opacity=".6"/></g><path d="M201 132l-30 -10" stroke="#e5eadd" stroke-width="6"/><path d="M240 204Q230 194 265 184" stroke="#426c40" stroke-width="6" fill="none"/><g transform="translate(265 184) rotate(56) scale(0.83)"><path d="M0 0C-45-25-54-81 0-100C54-81 45-25 0 0Z" fill="url(#leaf)"/><path d="M0-5V-100" stroke="#a1b88b" stroke-width="1.5" opacity=".6"/></g><path d="M279 154l30 -10" stroke="#e5eadd" stroke-width="6"/><path d="M240 226Q230 216 215 206" stroke="#426c40" stroke-width="6" fill="none"/><g transform="translate(215 206) rotate(-56) scale(0.83)"><path d="M0 0C-45-25-54-81 0-100C54-81 45-25 0 0Z" fill="url(#leaf)"/><path d="M0-5V-100" stroke="#a1b88b" stroke-width="1.5" opacity=".6"/></g><path d="M201 176l-30 -10" stroke="#e5eadd" stroke-width="6"/><path d="M240 248Q230 238 265 228" stroke="#426c40" stroke-width="6" fill="none"/><g transform="translate(265 228) rotate(56) scale(0.83)"><path d="M0 0C-45-25-54-81 0-100C54-81 45-25 0 0Z" fill="url(#leaf)"/><path d="M0-5V-100" stroke="#a1b88b" stroke-width="1.5" opacity=".6"/></g><path d="M279 198l30 -10" stroke="#e5eadd" stroke-width="6"/><path d="M240 270Q230 260 215 250" stroke="#426c40" stroke-width="6" fill="none"/><g transform="translate(215 250) rotate(-56) scale(0.83)"><path d="M0 0C-45-25-54-81 0-100C54-81 45-25 0 0Z" fill="url(#leaf)"/><path d="M0-5V-100" stroke="#a1b88b" stroke-width="1.5" opacity=".6"/></g><path d="M201 220l-30 -10" stroke="#e5eadd" stroke-width="6"/><path d="M240 292Q230 282 265 272" stroke="#426c40" stroke-width="6" fill="none"/><g transform="translate(265 272) rotate(56) scale(0.83)"><path d="M0 0C-45-25-54-81 0-100C54-81 45-25 0 0Z" fill="url(#leaf)"/><path d="M0-5V-100" stroke="#a1b88b" stroke-width="1.5" opacity=".6"/></g><path d="M279 242l30 -10" stroke="#e5eadd" stroke-width="6"/><path d="M240 314Q230 304 215 294" stroke="#426c40" stroke-width="6" fill="none"/><g transform="translate(215 294) rotate(-56) scale(0.83)"><path d="M0 0C-45-25-54-81 0-100C54-81 45-25 0 0Z" fill="url(#leaf)"/><path d="M0-5V-100" stroke="#a1b88b" stroke-width="1.5" opacity=".6"/></g><path d="M201 264l-30 -10" stroke="#e5eadd" stroke-width="6"/><path d="M240 336Q230 326 265 316" stroke="#426c40" stroke-width="6" fill="none"/><g transform="translate(265 316) rotate(56) scale(0.83)"><path d="M0 0C-45-25-54-81 0-100C54-81 45-25 0 0Z" fill="url(#leaf)"/><path d="M0-5V-100" stroke="#a1b88b" stroke-width="1.5" opacity=".6"/></g><path d="M279 286l30 -10" stroke="#e5eadd" stroke-width="6"/><ellipse cx="240" cy="316" rx="71" ry="10" fill="#ded2ba"/><path d="M168 316H312L292 397Q240 421 188 397Z" fill="#ded2ba"/><path d="M168 316H312L292 397Q240 421 188 397Z" fill="url(#pot)"/></svg>
